<svg version="1" xmlns="http://www.w3.org/2000/svg" width="1444" height="1444" viewBox="0 0 1083.000000 1083.000000"><path d="M527 45.9v15.8l-14.2.1c-7.9 0-15.1.1-16 .1-1.6.1-1.8 1.5-1.8 14.6 0 10.9.3 14.5 1.3 14.6.6.1 7.7.2 15.7.3l14.5.1.3 15.7.3 15.7 14.1.3c10.2.2 14.2 0 14.5-.9.3-.6.5-7.8.6-16l.2-14.8h15.2c8.3 0 15.5-.4 15.9-.8.4-.4.8-6.8.8-14.3.1-11-.2-13.8-1.3-14.2-.8-.3-8-.6-16-.6l-14.6-.1-.2-13c-.1-7.2-.2-14.2-.2-15.8L556 30h-29v15.9zM357.5 141.1c-18.2 2.5-28.4 5.5-43.5 12.7-38.3 18.3-65 52.7-74.2 95.5-2 9.4-2.2 13.7-2.5 51.9L237 343h3.2c19.5.2 64.1 0 64.4-.2.2-.2.4-17.3.4-38 .2-34.1.4-38.4 2.2-45.4 7.7-30.2 33.3-50.8 64.3-51.7 3.9-.2 16 1.4 17.3 2.2 1 .6.5 2.4-2.3 8-4.9 9.8-10.3 26.5-11.9 36.9-.9 6-1.4 21.1-1.5 48.4L373 343h67.8l.1-37.9c0-41.5.4-45.2 6-57.5 9.7-21.4 30.5-36.9 52.6-39.2 2.8-.3 5.5-.7 6.2-.9.6-.2 1.6.2 2.1.8.5.7.8 29.5.8 68l-.1 66.7 34-.2 34-.3V276c0-36.6.3-67 .7-67.6 1.3-1.9 23.9 2.3 25.4 4.7.3.5 1.1.9 1.9.9 2.4 0 13.3 7.4 19 12.9 9.6 9.3 16.3 21.3 19.1 34.5 1.2 5.6 1.6 14.8 1.6 44.3l.1 37.3 3.6.1c4 .1 60 0 61.6 0 1.2-.1 1.3-72.7.1-82.5-1.6-13.6-6.6-30-13.2-43.6l-3.1-6.5 2.6-.8c5-1.6 21.4-1.6 28.4-.2 28.2 6 50.7 30.4 53.3 57.9.4 3.9.8 22.6.8 41.6l.1 34.5 33.8.1H846l.1-6.5c.2-23.2-.1-70.3-.5-74.1-.5-4.1-1.3-9.4-2.2-14.3-1-5.6-4.9-18.1-7.8-25.1-7.2-17.3-15.8-30-30-44.1-41.3-41.1-103.5-50.7-156.3-24.1l-6.6 3.3-8.7-4.3c-11.2-5.6-23.9-9.8-36.5-12.1-12.8-2.4-34.4-2.3-46 .3-10.2 2.2-11.9 2.2-23.7-.3-23.9-4.9-53.8-.3-78.8 12.2l-8.6 4.2-7.8-3.9c-7.9-4-25.3-10.2-31.5-11.3-1.9-.3-3.7-.8-4-1-2.6-1.5-31.1-2.6-39.6-1.4zM339.5 394c-.6 1-.7 6.4-.6 36.5l.1 31 202.2-.1c111.3-.1 202.6-.2 202.9-.3 1.1-.2.5-67.1-.6-67.2-3.5-.4-403.7-.3-404 .1zM1.7 512c-.9.4-1.2 3.1-1.1 9.5.1 9.8 1.3 34.5 1.8 38.5.2 1.4.7 5.6 1 9.5.4 3.8.9 8.1 1.1 9.5.2 1.4.7 4.5.9 7 .8 5.8 5.3 32.2 6.6 38 8.8 38.5 20.4 74.7 34.6 107 5.5 12.7 22.2 44.7 29.9 57.5 11.4 19 30.5 47 39.6 58 8.2 9.9 19.1 22.8 22.4 26.5 5.1 5.8 34.6 35.3 40.5 40.5 12.5 11.2 23.1 19.9 36.5 30.3 26.3 20.2 70.8 46.9 99.5 59.6 3.6 1.6 8.8 3.9 11.5 5.1 36.4 16.6 98.9 34.2 138.5 39 3 .4 5.7.8 6 1 .3.2 4.3.6 9 1s8.7.8 9 1c.3.1 5.9.7 12.5 1.1 22 1.6 78.2.9 92.5-1.1 1.4-.2 5.4-.7 9-1 3.6-.4 7.2-.9 8-1 .8-.1 4-.6 7-1 4.7-.5 8.7-1.2 24-3.9 1.4-.2 6.1-1.2 10.5-2.1 4.4-.9 8.7-1.8 9.5-2 11.8-2.3 56.5-15.4 63.5-18.5 1.1-.5 8.3-3.4 16.1-6.4 16.2-6.3 24.4-10 43.6-19.6 13.5-6.8 36.8-19.8 37.8-21 .3-.4 1.6-1.3 3-2 9.6-5 54.5-37 59.5-42.4.6-.6 3.7-3.3 7-6.1 10.6-8.9 13.7-11.7 30.5-28.5 23.3-23.3 35.7-37.4 53.4-61.3 34-45.8 61.2-98.2 78.9-152.2 10.8-32.8 18.7-66.9 22.2-96 .4-2.8.8-5.7 1-6.5.2-.8.7-5.1 1-9.5.4-4.4.8-8.7 1-9.5.6-2.1 1.7-25.5 1.9-37.5l.1-10-101.2-.2-101.3-.1-.1 2.1c-.6 22.4-2.1 39.1-4.6 53.2-.3 1.6-.6 3.7-.8 4.5-1.3 9.3-6.9 30.9-11.9 46.2-11.4 34.7-28.9 68.1-50.9 97-2.8 3.8-5.3 6.8-5.6 6.8-.4 0-1.9-4.8-3.5-10.8-8.4-31.3-25-65.4-44.7-91.5-3.4-4.5-7-9.1-8-10.2-1-1.1-4.2-4.7-7.1-8-40.9-46.2-98.2-77-161.5-86.9-15.4-2.4-41.3-3.4-58.3-2.2-27.9 2-63.1 10.3-83.7 19.7-2.4 1-4.5 1.9-4.8 1.9-.7 0-17.5 8.3-24 12-22.8 12.7-41.8 27.2-61.2 46.8L339 603.1l-.1-30.8c0-16.9 0-37.4.1-45.6.1-13.5-.1-14.7-1.7-14.8-8.2-.4-334.7-.3-335.6.1zm269 77.5c.2 5.5.4 56.8.6 114 .2 57.2.6 105.1.9 106.5.3 1.4.9 5 1.2 8 2.1 17.7 9.9 48.2 16.1 62.5.7 1.6 2.5 5.9 4 9.5 3.1 7.4 15.4 31.2 16.4 32 .4.3 1 1.3 1.4 2.3.7 2-1.9.6-17.8-9.2-43-26.5-79.3-58.1-116-100.8-.5-.6-2.1-2.6-3.5-4.4-1.4-1.8-3-3.7-3.5-4.3-2.3-2.5-15.6-20.8-21.4-29.4-21.7-32.4-41.8-72.3-53.3-105.7-.5-1.7-1.4-3.9-1.8-5-1.6-3.6-8.9-28.8-11.5-39.5-2.8-11.4-9.4-45.2-9-46 .2-.3 44.6-.5 98.7-.5h98.3l.2 10zm288.3-9.1c62.6 5.5 118.3 39 152.8 91.8 19.1 29.3 31.9 69.6 31.7 100.1v10.1l-9 6.4c-16.1 11.4-39.7 24.7-57.5 32.5-8.1 3.5-7.9 3.7-5-6.1 5.5-18.6 6-42.4 1.4-63.2-2.6-11.5-4-15.8-9.7-28.2-18.3-39.8-58.3-69.3-102.7-75.5-7-1-29.6-1-37.5-.1-47.6 5.7-90.9 40-108.4 85.8-3.2 8.3-7 23.9-8 32.7-.9 8.3-.7 28.6.3 34 .3 1.8.8 4.8 1.1 6.5 6.7 39.7 35.5 77.8 72.5 96 6.9 3.4 15 6.7 15 6.1 0-.3.6-.1 1.3.4 1.4 1.2 15.3 4.9 21.7 5.8 2.5.4 5.9.9 7.5 1.2 4.1.7 32.9.6 41.8-.2 13.7-1.1 18.2-1.5 21.7-2 1.9-.2 5.5-.7 8-1.1 46.3-6 97.5-23.2 140-46.7 3-1.7 6.9-3.8 8.7-4.8 2.9-1.6 27.7-17.9 34.3-22.6 1.4-.9 7-5.3 12.5-9.7C856 779.9 901.9 714.4 927 639c5.5-16.7 12-42.7 14.5-58 .2-1.3 4.8-1.5 34.3-1.5 29.8 0 34.2.2 34.2 1.5 0 5.8-6.2 36-11.1 54-2.2 8-4.1 15.2-4.3 16-.3.8-1.6 4.9-3.1 9-1.4 4.1-2.8 8.2-3 9.1-.2.9-2.8 7.9-5.9 15.6-17.9 45.3-40.5 84.2-71.5 123.3-2 2.5-3.8 4.7-4.1 5-.3.3-1.8 2.1-3.4 4-1.6 1.9-6.3 7.3-10.5 11.9-46 50.9-102.9 91.5-166.1 118.4-15.4 6.5-39.5 15.3-51.5 18.7-6 1.7-22.8 6.1-24.5 6.5-.8.2-3.5.8-6 1.4-2.5.5-5.6 1.2-7 1.4-21.9 4.1-20.4 3.9-33 5.6-20.2 2.8-31.8 3.6-58 3.6-25.8 0-30.9-.4-48.5-3.9-7.1-1.4-24-6.4-29-8.6-1.1-.5-5.4-2.3-9.5-4.1-22.4-9.4-42.4-23.2-61.6-42.4-14.6-14.5-22-23.9-31.6-40-13.7-23-21.3-44.3-26.4-74.5-1.1-7-2-21.5-1.8-31.9.1-9.6.4-13.3 2-26.6 2.6-21.5 14.5-55.2 25.7-72.8 2.1-3.2 3.7-6 3.7-6.3 0-.3 3.7-5.6 8.3-11.7 42.3-56.8 110.6-87.5 180.7-81.3zm.2 136.7c18.2 5.1 33.1 16.8 41.6 32.8 18.5 34.7 5.3 75.9-29.8 92.9-10.5 5.1-17 6.4-30.5 6.4-29.2-.1-54.9-19.8-63.4-48.7-3.8-13.2-3.1-29.3 1.9-42.9 3.7-9.9 12.4-21.3 22.2-29.3 4.5-3.7 14.8-8.6 22.8-10.9 10-2.9 25.2-3.1 35.2-.3z"/></svg>